<?xml version="1.0" standalone="no"?>
<!DOCTYPE svg PUBLIC "-//W3C//DTD SVG 20010904//EN"
 "http://www.w3.org/TR/2001/REC-SVG-20010904/DTD/svg10.dtd">
<svg version="1.0" xmlns="http://www.w3.org/2000/svg"
 width="864.000000pt" height="864.000000pt" viewBox="0 0 864.000000 864.000000"
 preserveAspectRatio="xMidYMid meet">
<metadata>
Created by potrace 1.11, written by Peter Selinger 2001-2013
</metadata>
<g transform="translate(0.000000,864.000000) scale(0.100000,-0.100000)"
fill="#000000" stroke="none">
<path d="M4118 8209 c-10 -5 -18 -7 -18 -4 0 11 -100 -46 -135 -77 -29 -25
-47 -32 -88 -34 -48 -3 -96 -8 -202 -20 -22 -2 -65 -9 -95 -15 -30 -5 -67 -12
-81 -14 -39 -5 -143 -33 -239 -62 -47 -15 -89 -27 -95 -29 -5 -1 -23 -8 -40
-15 -16 -7 -32 -13 -35 -14 -8 -3 -63 -25 -85 -34 -104 -44 -337 -168 -343
-183 -2 -4 -8 -8 -12 -8 -16 0 -222 -145 -277 -195 -6 -5 -35 -31 -65 -57 -72
-62 -162 -152 -223 -223 -28 -32 -60 -70 -72 -84 -26 -30 -25 -29 -79 -101
-48 -64 -132 -198 -174 -275 -16 -30 -34 -62 -39 -72 -55 -102 -150 -339 -177
-443 -2 -8 -8 -33 -14 -55 -6 -22 -13 -48 -15 -58 -2 -10 -6 -26 -9 -35 -6
-19 -15 -62 -22 -107 -3 -16 -9 -55 -15 -85 -12 -69 -22 -187 -23 -267 -1 -35
-5 -63 -9 -63 -5 0 -5 -4 -2 -10 3 -5 6 -60 5 -122 -1 -163 -1 -222 0 -321 0
-48 -2 -92 -5 -97 -3 -5 -1 -11 4 -14 12 -8 4 -33 -42 -151 -20 -49 -39 -102
-42 -118 -4 -15 -11 -30 -16 -33 -5 -3 -9 -11 -9 -19 0 -8 -5 -26 -12 -42 -6
-15 -12 -30 -13 -33 -2 -7 -14 -38 -30 -80 -20 -52 -28 -74 -31 -85 -1 -5 -26
-71 -54 -145 -56 -147 -62 -165 -59 -165 1 0 -4 -11 -11 -25 -8 -14 -14 -27
-15 -30 0 -7 -35 -100 -50 -135 -7 -16 -19 -48 -26 -70 -7 -22 -17 -44 -21
-50 -4 -5 -8 -15 -8 -21 0 -7 -5 -25 -12 -41 -6 -15 -12 -30 -13 -33 -1 -3 -5
-14 -10 -25 -4 -11 -21 -56 -37 -100 -16 -44 -34 -90 -39 -103 -5 -13 -25 -67
-45 -120 -19 -53 -40 -108 -45 -122 -6 -14 -22 -56 -36 -95 -14 -38 -30 -81
-36 -95 -5 -14 -11 -29 -12 -35 -3 -9 -29 -78 -50 -130 -4 -11 -9 -24 -11 -30
-1 -5 -8 -23 -15 -40 -7 -16 -13 -32 -13 -35 -2 -9 -38 -105 -51 -135 -7 -16
-20 -50 -28 -75 -9 -25 -50 -135 -92 -245 -42 -110 -77 -204 -79 -210 -2 -5
-6 -19 -11 -30 -6 -18 -50 -133 -71 -190 -4 -11 -8 -24 -10 -30 -1 -5 -24 -64
-49 -130 -26 -66 -52 -136 -59 -155 -7 -19 -45 -121 -84 -226 -40 -105 -72
-196 -72 -203 0 -6 -5 -11 -10 -11 -12 0 -9 -22 4 -32 5 -3 17 -3 27 0 10 4
52 5 94 2 42 -3 78 -4 80 -2 2 2 110 3 242 2 131 -1 245 -1 253 -1 82 2 285
-1 291 -5 4 -2 10 -1 12 3 3 5 40 6 82 3 42 -3 78 -4 80 -2 2 2 110 3 242 2
131 -1 245 -1 253 -1 28 1 282 0 288 -1 4 0 10 0 15 1 6 2 111 3 121 2 2 -1
-8 -37 -24 -81 -25 -70 -28 -92 -25 -168 2 -48 5 -94 6 -102 2 -25 76 -174 97
-195 65 -68 158 -133 212 -150 190 -57 365 -13 503 127 37 38 65 74 62 79 -6
9 0 9 85 8 25 0 50 -1 55 -1 139 3 469 2 472 -2 2 -2 17 -1 32 4 15 4 35 4 44
-1 10 -6 18 -5 22 1 4 6 13 7 23 1 9 -5 25 -6 34 -2 9 3 54 4 99 1 44 -3 83
-2 86 3 2 4 12 3 21 -2 9 -5 26 -5 38 -1 12 5 24 7 26 5 6 -6 48 -7 302 -5
126 0 230 -1 233 -4 2 -2 17 -1 32 4 15 4 35 4 44 -1 10 -6 18 -5 22 1 4 6 13
7 23 1 9 -5 25 -6 34 -2 9 3 54 4 99 1 44 -3 83 -2 86 3 2 4 12 3 21 -2 9 -5
26 -5 38 -1 12 5 24 7 26 4 5 -4 49 -5 146 -3 34 1 65 -1 68 -4 3 -3 18 -2 33
3 15 4 35 4 44 -1 10 -6 18 -5 22 1 4 6 13 7 23 1 9 -5 25 -6 34 -2 9 3 54 4
99 1 44 -3 83 -2 86 3 2 4 12 3 22 -3 10 -5 21 -7 24 -3 4 3 46 5 94 4 68 -1
90 -5 98 -17 51 -81 156 -164 246 -195 73 -26 191 -33 259 -17 25 5 51 11 58
12 7 1 18 8 24 14 7 7 18 12 25 12 13 0 106 60 110 70 1 3 20 24 42 48 81 85
124 206 116 332 -2 41 -6 82 -8 90 -17 63 -22 78 -35 98 -8 12 -12 25 -9 28 3
3 57 5 119 4 62 -1 120 -2 128 -1 70 2 285 -1 291 -5 4 -2 10 -1 12 3 3 5 40
6 82 3 42 -3 78 -4 80 -2 2 2 110 3 242 2 131 -1 245 -1 253 -1 82 2 285 -1
291 -5 4 -2 10 -1 12 3 3 5 40 6 82 3 42 -3 78 -4 80 -2 2 2 98 3 214 3 l211
-1 -31 83 c-17 45 -44 117 -59 160 -16 42 -32 82 -35 87 -3 6 -8 18 -10 27 -2
10 -33 96 -70 191 -37 96 -68 179 -69 185 -2 7 -9 26 -16 42 -12 29 -52 136
-90 240 -10 28 -39 104 -65 170 -25 66 -48 127 -50 135 -2 8 -33 92 -69 185
-68 179 -259 688 -306 815 -15 41 -38 101 -50 132 -11 32 -21 60 -20 63 0 3
-7 19 -16 36 -8 17 -17 38 -19 47 -3 14 -103 281 -226 605 -54 144 -87 232
-117 312 -16 44 -33 89 -37 100 -4 11 -9 25 -11 30 -2 6 -20 56 -41 112 -33
86 -38 109 -33 155 3 29 3 88 0 131 -3 42 -1 77 3 77 5 0 6 4 2 9 -4 8 -6 118
-4 211 1 32 -12 296 -15 320 -2 14 -7 48 -11 75 -3 28 -9 61 -11 75 -3 14 -9
49 -14 78 -5 30 -12 62 -15 72 -3 10 -8 29 -11 42 -3 13 -6 28 -8 33 -22 81
-33 115 -61 198 -19 54 -42 115 -51 135 -9 20 -20 46 -24 57 -16 39 -85 180
-91 185 -3 3 -22 34 -41 70 -38 71 -155 243 -169 248 -5 2 -9 8 -9 14 0 20
-161 200 -279 312 -36 34 -73 69 -83 79 -10 9 -22 17 -27 17 -5 0 -11 3 -13 8
-5 13 -100 87 -183 144 -140 96 -290 180 -416 233 -46 19 -92 39 -101 45 -10
5 -26 10 -36 10 -10 0 -22 4 -27 9 -29 27 -407 122 -545 136 -82 9 -149 15
-201 18 -36 2 -55 11 -85 36 -21 19 -63 46 -94 60 -53 25 -63 26 -250 28 -118
1 -202 -2 -212 -8z"/>
</g>
</svg>
